<svg width="17" height="10" viewBox="0 0 17 10" fill="none" xmlns="http://www.w3.org/2000/svg">
                                            <g opacity="0.5">
                                                <rect x="16.2783" y="0.353553" width="0.5" height="11.4935" transform="rotate(45 16.2783 0.353553)" fill="white"></rect>
                                                <rect x="16.2783" y="0.353553" width="0.5" height="11.4935" transform="rotate(45 16.2783 0.353553)" fill="white"></rect>
                                                <rect x="16.2783" y="0.353553" width="0.5" height="11.4935" transform="rotate(45 16.2783 0.353553)" fill="white"></rect>
                                                <rect x="16.2783" y="0.353553" width="0.5" height="11.4935" transform="rotate(45 16.2783 0.353553)" fill="white"></rect>
                                                <rect x="16.2783" y="0.353553" width="0.5" height="11.4935" transform="rotate(45 16.2783 0.353553)" stroke="white" stroke-width="0.5"></rect>
                                                <rect x="0.368201" y="0.707031" width="0.499999" height="11.4733" transform="rotate(-45 0.368201 0.707031)" fill="white"></rect>
                                                <rect x="0.368201" y="0.707031" width="0.499999" height="11.4733" transform="rotate(-45 0.368201 0.707031)" fill="white"></rect>
                                                <rect x="0.368201" y="0.707031" width="0.499999" height="11.4733" transform="rotate(-45 0.368201 0.707031)" fill="white"></rect>
                                                <rect x="0.368201" y="0.707031" width="0.499999" height="11.4733" transform="rotate(-45 0.368201 0.707031)" fill="white"></rect>
                                                <rect x="0.368201" y="0.707031" width="0.499999" height="11.4733" transform="rotate(-45 0.368201 0.707031)" stroke="white" stroke-width="0.499999"></rect>
                                            </g>
                                        </svg>