<svg version="1.1" id="Слой_1" xmlns="http://www.w3.org/2000/svg" xmlns:xlink="http://www.w3.org/1999/xlink" x="0px" y="0px"
	 viewBox="0 0 67.2 61" style="enable-background:new 0 0 67.2 61;" xml:space="preserve">
<style type="text/css">
	.st0{fill:none;}
	.st1{fill:#FFFFFF;}
	.st2{fill:#3F1B07;}
</style>
<rect x="-139.5" y="-28.7" class="st0" width="60" height="51"/>
<g>
	<path class="st1" d="M65.1,30.5c0.3-0.5,0.6-1,0.8-1.5c1.2-2.5,0.8-5.2-1.1-7.4c-1.1-1.2-2.5-1.9-3.9-2.1c0.2-0.9,0.3-1.7,0.3-2.6
		c0-3.3-1.2-6.4-3.4-9.2C54.8,4,51,2.1,46.5,2c-3.4-0.1-6.8,0.9-10.4,2.9C33,6.6,29.9,9,26.4,12.2C20,18.2,13.4,22.7,6,26
		c-0.9,0.4-1.7,0.8-2.6,1.3l-1.1,0.6c-1,0.5-1.7,1.5-1.7,2.7s0.6,2.2,1.7,2.7l2.3,1.1c1.5,0.7,3,1.5,4.5,2.2c5.3,2.6,9.9,5.7,14,9.3
		c2.5,2.3,5.2,4.5,7.8,6.7c3.3,2.7,6.4,4.5,9.6,5.5c2.1,0.7,4.1,1,5.8,1c5.1,0,8.6-2.5,10.8-5c3.1-3.4,4.4-7.3,3.9-11.4
		c0-0.4-0.1-0.8-0.2-1.2c0.9-0.1,1.8-0.4,2.7-1c2.8-1.9,3.8-5.4,2.3-8.4C65.6,31.4,65.4,31,65.1,30.5z"/>
	<g>
		<path class="st2" d="M46.5,15.2c0.4,0.5,0.8,0.9,1.3,1.5c0.7-2.1,1.4-4.2,2.2-6.3c-2.2,0.7-4.2,1.3-6.4,2c0.4,0.5,0.8,0.9,1.2,1.3
			c-0.5,0.8-1.1,1.5-1.6,2.3c-1.9,3.3-1.3,6.8,1.6,9.5c2.7,2.4,6,3.4,9.6,3.2c0.9-0.1,1.8-0.2,2.7-0.5c0.5-0.2,1.1-0.5,1.5-0.8
			c1.6-1.3,1.6-3,0-4.3c1.2-0.9,2.8-0.6,3.9,0.6c1.1,1.2,1.4,2.7,0.7,4.1c-0.4,1-1.1,1.8-1.7,2.8c0.5,0.8,1.1,1.7,1.6,2.7
			c0.8,1.7,0.2,3.6-1.3,4.7c-1,0.7-2.1,0.7-3.2,0c0.3-0.2,0.5-0.4,0.8-0.7c0.5-0.6,0.6-1.5,0.2-2.3c-0.8-1.6-2.3-2.3-3.9-2.5
			c-3.2-0.5-6.2,0-8.9,1.7c-2.3,1.4-4.1,3.2-4.6,6c-0.3,1.9,0.2,3.5,1.2,5.1c0.4,0.7,0.9,1.3,1.4,2.1c-0.4,0.4-0.7,0.8-1.2,1.3
			c2.1,0.7,4.2,1.3,6.4,2c-0.7-2.2-1.4-4.2-2.2-6.4c-0.5,0.6-0.9,1.1-1.3,1.6c-1.6-1.5-2.5-3.2-2.1-5.2c0.5-2.1,2-3.4,4-4
			c4.3-1.4,9.1,1.8,9.6,6.2c0.4,3.5-0.9,6.5-3.2,9.1c-3.7,4.2-8.4,4.8-13.5,3.1c-3.2-1-6-2.8-8.6-5c-2.6-2.1-5.2-4.3-7.7-6.6
			c-4.4-3.9-9.4-7.1-14.7-9.8c-2.2-1.1-4.5-2.2-6.8-3.3c1.3-0.6,2.5-1.2,3.7-1.8c7.9-3.5,14.9-8.4,21.2-14.3c2.8-2.6,5.8-5,9.2-6.9
			C40.4,6,43.3,5,46.5,5c3.7,0.1,6.7,1.7,8.9,4.5c1.7,2.2,2.8,4.6,2.8,7.4c0,4.3-3.7,7.9-8,7.7c-2-0.1-3.7-1-4.9-2.6
			C43.7,20,44.2,17,46.5,15.2z"/>
	</g>
</g>
</svg>
