<svg width="658" height="127" viewBox="0 0 658 127" fill="none" xmlns="http://www.w3.org/2000/svg">
<g clip-path="url(#clip0)">
<path d="M469.84 42.18C471.42 47.36 469.24 49.88 465.41 51.26C460.02 53.19 454.6 51.13 452.6 46.64C449.86 40.47 453.56 32.22 460.13 29.99C471.66 26.07 482.84 28.27 493.71 32.48C513.14 40.02 528.66 52.78 541.31 69.18C542.29 70.45 543.3 71.7 544.79 73.58C545.08 69.04 544.76 65.18 545.7 61.65C546.74 57.76 548.35 53.72 550.79 50.58C553.87 46.64 559.84 46.3 564.01 48.96C567.8 51.38 570.14 54.53 568.59 59.41C566.98 64.49 563.73 66.9 557.98 66.79C558.77 65.08 559.76 63.58 560.16 61.92C561.01 58.43 559.93 55.32 556.37 54.32C552.84 53.33 551.99 56.4 551.3 59.05C547.52 73.59 552 85.92 562.63 95.68C578.52 110.27 597.16 116.43 618.2 108.78C631 104.13 637.93 93.87 638.92 80.18C639.68 69.63 634.78 61.95 625.17 57.51C624.36 57.13 623.55 56.75 622.13 56.08C639.66 53.47 647.75 67.88 643.92 92.85C648.78 82.29 649.2 71.63 643.37 61.31C637.74 51.35 628.69 46.58 617.35 46.61C609.92 46.63 606.12 50.87 606.13 58.32C606.13 60.81 606.47 63.29 606.6 65.78C606.91 71.48 604.05 75.74 599.14 76.53C593.77 77.4 591.84 73.42 590.21 69.53C583.66 53.92 593.36 38 610.53 35.98C629.45 33.76 645.54 41.38 653.21 56.2C661.46 72.12 658.37 92.17 645.5 106.21C629.97 123.14 606.32 126.73 583.14 115.95C570.28 109.97 560.29 100.69 551.53 89.84C545.79 82.72 540.28 75.38 534.18 68.58C519.15 51.81 500.55 41.11 478.21 37.44C474.39 36.81 470.3 37.43 466.38 37.91C464.9 38.09 462.97 39.19 462.32 40.43C461.54 41.9 461.92 43.98 461.79 45.8C463.59 45.71 465.46 45.9 467.15 45.41C468.07 45.16 468.62 43.74 469.84 42.18Z" fill="#301C11"/>
<path d="M15.76 96.26C7.85001 71.44 16.57 53.17 35.42 56.02C32.84 57.37 30.45 58.39 28.29 59.78C20.46 64.84 16.93 75.17 19.38 85.45C22.92 100.29 35.21 110.44 51.32 111.84C73.99 113.8 97.93 99.89 105.49 80.31C108.21 73.26 108.79 65.99 106.2 58.85C105.52 56.97 103 54.32 101.55 54.45C98.06 54.77 96.99 58.03 97.47 61.25C97.74 63.12 98.86 64.86 99.7 66.92C94.35 67.54 91.29 64.71 89.51 60.5C87.67 56.18 88.88 52.37 92.78 49.54C96.84 46.58 102.69 46.25 106.1 49.89C108.69 52.65 110.63 56.43 111.71 60.09C112.85 63.98 112.63 68.28 113.1 73.43C114.5 71.63 115.52 70.32 116.53 69.02C130.56 50.99 147.82 37.38 169.86 30.51C178.87 27.7 188.08 26.76 197.32 29.89C203.63 32.03 207.82 39.28 205.39 45.38C204.38 47.91 201.52 50.49 198.93 51.4C195.36 52.65 191.12 52.22 188.57 48.6C187.53 47.13 187.45 44.97 186.93 43.13C187.39 42.96 187.85 42.8 188.31 42.63C188.63 43.08 188.86 43.71 189.3 43.95C191.06 44.91 192.84 45.92 194.74 46.47C195.15 46.59 196.86 44.57 196.66 44.11C195.78 42.13 194.85 39.55 193.16 38.67C187.02 35.47 180.44 36.81 174.14 38.33C149.65 44.21 130.6 58.16 115.47 78.02C106.71 89.52 98.09 101.25 85.86 109.48C70.8 119.62 54.44 124.64 36.25 120.65C9.28001 114.76 -7.04999 84.33 2.98001 59.45C12.81 35.07 41.48 31.89 56.16 38.55C68.32 44.07 73.26 60.69 66.21 72.21C64.49 75.02 62.34 77.49 58.59 76.55C54.6 75.55 51.56 73.22 51.26 68.8C51.04 65.67 51.41 62.5 51.51 59.34C51.8 50.7 47.5 46.35 38.84 46.54C20.89 46.92 7.35001 63.92 10.51 82.49C11.33 87.31 13.22 91.95 14.61 96.67C14.99 96.53 15.38 96.4 15.76 96.26Z" fill="#301C11"/>
<path d="M333.33 67.35C342.77 61.41 353.48 61.41 364.08 60.26C374.09 59.16 384 57 393.9 55.02C396.26 54.55 398.51 53.12 400.61 51.81C409.35 46.4 410.97 41.27 407.84 29.68C414.01 30.85 418.36 37.55 417.07 44.01C415.87 50 412.42 54.7 406.79 56.61C398.66 59.36 390.2 61.13 381.86 63.21C379.97 63.68 377.97 63.7 376.35 63.9C391.79 70.93 407.17 78.3 422.85 84.93C432.62 89.06 439.84 86.8801 446.15 79.41C450.66 74.07 450.88 67.73 446.75 61.97C442.34 55.84 434.2 52.6 428.47 54.9C423.82 56.7701 421.88 60.55 421.54 64.89C424.3 64.89 427.46 63.94 429.15 65.12C431.59 66.81 434.06 69.89 434.45 72.66C434.76 74.8801 432.53 78.71 430.44 79.68C427.89 80.85 423.87 80.69 421.26 79.46C416.77 77.36 414.9 70.66 416.1 64.92C417.94 56.07 425.92 49.31 435.28 48.77C437.91 48.62 440.56 48.75 443.53 48.75C441.37 40.33 438.69 31.73 447.91 25.82C451.38 23.59 455.26 22.93 459.66 26.34C453.01 27.17 448.7 30.32 447.07 36.2C445.3 42.54 447.64 48.05 451.65 52.83C456.26 58.32 460.11 64.03 459.03 71.67C456.92 86.65 440.81 96.35 425.77 91C417.84 88.18 410.5 83.7 402.85 80.07C395.79 76.72 388.68 73.48 381.55 70.28C379.98 69.57 378.24 69.24 375.36 68.37C382 74.24 387.79 78.94 393.09 84.14C399.33 90.26 404.33 97.31 406.03 106.17C407.74 115.07 403.73 122.96 395.17 126.83C400.1 107.77 395.73 92.01 379.69 80.26C384.52 89.23 387.41 98.17 380.23 107.51C382.3 93.9901 377.47 83.47 366.49 75.9C355.67 68.44 343.71 67.7 330.26 71.95C331.84 69.62 332.64 68.43 333.45 67.24C333.45 67.22 333.33 67.35 333.33 67.35Z" fill="#301C11"/>
<path d="M198.54 26.06C202.35 22.82 206.19 23.62 209.63 25.74C219.04 31.54 216.45 40.11 214.15 48.76C217.19 48.76 219.97 48.6 222.72 48.79C233.94 49.55 243.01 59.24 241.7 69.64C241.29 72.86 239.51 76.29 237.4 78.82C234.58 82.19 229.55 82.04 226.09 79.28C222.58 76.49 221.96 72.98 223.93 69.05C226.04 64.85 229.44 63.71 234.39 65.38C234.83 65.53 235.31 65.59 235.79 65.7C235.9 57.8 230.12 52.9 222.61 54.44C213.58 56.28 206.73 64.94 208.26 72.57C210.02 81.36 220.08 88.23 228.95 86.6C231.23 86.18 233.56 85.67 235.66 84.73C250.91 77.84 266.11 70.83 281.06 63.99C276.54 63.33 271.33 63.1 266.45 61.72C260.11 59.94 253.72 57.82 247.91 54.78C242.6 52 240.01 46.67 240.56 40.51C241.06 34.92 244.45 31.28 249.51 29.06C249.75 29.46 249.94 29.63 249.91 29.74C246.73 43.87 249.98 49.78 263.83 55.14C275.04 59.48 286.85 59.93 298.64 60.8C304.89 61.26 311.2 62.34 317.22 64.06C320.76 65.07 323.79 67.87 326.77 70.68C314.02 67.95 302.09 68.39 291.22 75.89C280.21 83.49 275.62 93.96 277.52 107.35C270.25 98.29 273.19 89.51 278.28 80.57C264.76 86.73 259.11 103.15 262.17 126.33C255.14 124.37 250.23 115.79 251.47 107.52C252.89 98.02 258.13 90.55 264.72 84.04C269.99 78.84 275.79 74.17 281.11 68.59C277.44 69.96 273.63 71.06 270.12 72.75C258.74 78.24 247.54 84.11 236.12 89.54C227.1 93.83 218.03 93.65 209.47 88.18C197.45 80.51 195.19 66.69 203.97 55.48C205.2 53.91 206.52 52.4 207.61 50.73C214.79 39.77 211.22 29.76 198.54 26.06Z" fill="#301C11"/>
<path d="M308.39 37.11C304.71 41.83 306.63 45.74 310.08 49.15C314.09 53.12 318.45 56.75 322.47 60.71C323.96 62.18 324.92 64.18 325.64 65.23C316.28 61.73 306.94 58.06 297.47 54.76C287.53 51.29 279.37 45.67 274.05 36.45C267.56 25.18 271.62 10.22 282.9 3.30002C293.16 -2.99998 306.63 0.080018 313.75 10.34C319.38 18.46 316.97 29.79 308.55 33.3C306.62 34.1 302.92 34.08 301.97 32.89C300.86 31.5 301.56 28.35 302.09 26.1C302.39 24.81 303.87 23.78 304.86 22.66C308.04 19.06 307.95 15.92 304.57 12.66C297.15 5.51002 284.48 9.44002 281.99 16.67C292.55 10.24 295.77 10.07 300.89 15.63C290.04 13.61 282.89 18 280.93 27.89C278.99 37.66 288.01 47.57 300.29 49.69C300.82 46.43 300.83 42.98 302.08 40.05C302.81 38.32 305.5 37.42 307.31 36.15C307.67 36.47 308.03 36.79 308.39 37.11Z" fill="#301C11"/>
<path d="M510.9 66.47C512.72 78.76 511.82 81.46 505.03 84.05C510.61 75.44 509.24 67.27 501.39 62.19C492.07 56.17 480.73 60.41 472.83 72.75C475.44 73.7 478.69 74.02 480.56 75.79C482.46 77.59 483 80.81 483.62 83.98C478.54 78.07 473.38 80.03 468.19 82.83C464.39 84.89 460.7 87.18 456.81 89.05C454.53 90.15 451.96 90.64 449.2 90.84C458.59 84.63 463.8 74.99 470.52 66.69C476.12 59.77 483.1 54.87 491.73 52.51C502.09 49.68 513.09 53.7 519.02 62.37C529.12 77.13 520.48 96.34 502.72 98.59C494.96 99.58 486.72 93.37 485.99 85.54C485.8 83.53 486.81 80.02 488.08 79.59C489.91 78.97 492.69 80.17 494.67 81.3C495.93 82.01 496.52 83.96 497.33 85.4C499.65 89.57 503.05 90.56 507.31 88.19C515.68 83.57 516.42 71.39 510.9 66.47Z" fill="#301C11"/>
<path d="M208.61 91.59C205.76 90.66 203.05 90.1 200.64 88.93C196.61 86.98 192.81 84.55 188.83 82.49C183.85 79.91 178.86 78.19 174.73 84.6C173.89 76.88 176.91 73.7101 184.66 73.3701C181.24 64.2001 170.14 57.81 161.41 59.99C150.34 62.75 146.34 73.49 152.46 83.95C145.36 81.03 144.23 76.89 147.48 65.78C140.25 72.02 143.15 84.29 150.16 88.09C154.66 90.53 158.12 89.66 160.45 85.18C162.37 81.48 164.54 77.9 169.46 79.26C172.44 80.08 172.67 85.82 170.22 90.5C167.25 96.17 160.14 99.55 153.8 98.32C141.39 95.9 132.88 84.87 134.47 73.27C136.24 60.34 147.69 50.79 160.74 51.7C170.52 52.38 178.46 57.13 184.95 64.21C188.31 67.87 190.95 72.17 194.21 75.93C198.61 81.02 203.3 85.85 208.61 91.59Z" fill="#301C11"/>
<path d="M375.74 46.81C365.4 51.15 354.97 55.28 344.78 59.94C340.7 61.81 337.15 64.83 333.34 67.34C333.33 67.35 333.46 67.22 333.44 67.24C330.21 64.82 333.02 63.04 334.37 61.67C338.46 57.54 342.92 53.79 347.1 49.74C350.82 46.15 353.12 42.12 349.31 36.93C356.36 37.95 358.01 40.95 356.68 49.56C368.5 48.61 377.75 38.98 376.77 28.64C375.82 18.64 367.81 13.5 356.62 15.71C362.4 9.80003 366.78 10.23 376.22 17.65C373.87 9.29003 360.16 5.38003 352.92 12.89C349.91 16.01 349.6 19.27 352.71 22.56C352.82 22.68 352.94 22.8 353.06 22.92C356.08 25.86 358.62 29.13 355.66 33.31C353.88 35.82 348.36 34.1 344.8 30.27C339.72 24.8 339.57 16.09 344.45 9.62003C351.82 -0.149972 364.75 -2.86997 374.69 3.26003C385.72 10.06 390.07 24.31 384.06 35.47C381.82 39.63 378.42 43.16 375.55 46.98C375.57 46.99 375.74 46.81 375.74 46.81Z" fill="#301C11"/>
<path d="M398.49 84.04C403.73 88.16 408.62 92.02 413.52 95.87C413.75 95.69 413.98 95.52 414.22 95.34C411.68 92.46 409.13 89.58 406.05 86.08C413.99 88.59 419.25 93.4 423.71 99.35C424.08 99.09 424.46 98.84 424.83 98.58C423.89 96.61 422.95 94.64 421.8 92.24C431.58 94.37 432.08 102.26 434.22 110.7C429.96 109 426.58 107.65 422.85 106.16C423.67 112.93 425.19 120.06 422.09 126.24C414.36 112.41 406.62 98.57 398.49 84.04Z" fill="#301C11"/>
<path d="M235.65 126.04C232.48 120.05 233.97 113.16 234.93 106.18C231.34 107.6 227.9 108.95 223.57 110.66C225.56 102.09 226.25 94.35 236.09 92.1C234.76 94.58 233.65 96.64 232.54 98.7C232.81 99.01 233.08 99.32 233.35 99.63C238.41 94.17 243.26 88.39 251.66 86.17C248.59 89.53 246.13 92.23 243.67 94.92C243.89 95.15 244.12 95.38 244.34 95.6C249.28 91.8 254.22 88.01 259.11 84.26C255.15 91.55 251.4 98.61 247.49 105.58C243.66 112.41 239.65 119.15 235.65 126.04Z" fill="#301C11"/>
<path d="M286.21 53.92C282.04 52.68 278.86 51.73 275.67 50.78C275.51 51.15 275.35 51.53 275.19 51.9C277.33 53.25 279.48 54.61 281.86 56.11C269.62 58.5 258.71 49.53 260.39 38.14C264.13 43.55 269.34 44.75 275.18 45.03C280.4 45.29 283.56 48.64 286.21 53.92Z" fill="#301C11"/>
<path d="M375.57 46.99C379.58 46.18 383.73 45.76 387.56 44.43C391.13 43.19 394.35 40.97 397.57 39.27C399.27 49.24 388.93 57.88 375.58 56.33C378.07 54.74 380.21 53.37 382.35 52.01C382.2 51.63 382.06 51.25 381.91 50.87C378.77 51.77 375.63 52.68 371.67 53.82C373.26 51.08 374.5 48.95 375.74 46.81L375.57 46.99Z" fill="#301C11"/>
<path d="M538.98 36.47C537.31 41.74 539.35 45.54 542.48 49.29C545.41 52.81 545.08 56.79 542.49 61.13C541.02 58.42 539.85 56.25 538.68 54.08C538.34 54.21 538 54.34 537.66 54.46C537.81 56.46 537.97 58.47 538.14 60.7C529.08 53.37 529.38 42.18 538.98 36.47Z" fill="#301C11"/>
<path d="M118.47 35.83C128.29 43.27 128.49 52.68 119.65 60.86C119.78 58.49 119.89 56.52 119.99 54.54C119.69 54.41 119.39 54.28 119.09 54.16C117.9 56.3 116.7 58.44 115.34 60.89C112.27 56.71 112.45 52.58 115.42 49C118.48 45.31 120.4 41.64 118.47 35.83Z" fill="#301C11"/>
<path d="M413.33 74.71C405.92 72.44 398.8 70.26 390.32 67.67C393.54 66.88 395.45 66.41 398.51 65.65C396.08 64.96 394.71 64.57 393.34 64.18C398.01 61.68 402.66 61.9 407.15 64.33C411.5 66.67 413.45 70.46 413.33 74.71Z" fill="#301C11"/>
<path d="M264.29 64.2C262.93 64.54 261.57 64.87 259.11 65.48C261.98 66.22 263.89 66.72 267.31 67.6C259.04 70.18 251.98 72.39 244.92 74.6C244.19 71.95 244.92 68.91 247.96 66.2C252.74 61.93 258.32 61.63 264.29 64.2Z" fill="#301C11"/>
</g>
<defs>
<clipPath id="clip0">
<rect width="657.82" height="126.81" fill="white"/>
</clipPath>
</defs>
</svg>
